<?xml version="1.0" standalone="no"?>
<!DOCTYPE svg PUBLIC "-//W3C//DTD SVG 1.0//EN" "http://www.w3.org/TR/2001/REC-SVG-20010904/DTD/svg10.dtd">
<svg xmlns="http://www.w3.org/2000/svg" xmlns:xlink="http://www.w3.org/1999/xlink" id="body_1" width="30" height="30">

<g transform="matrix(0.42857143 0 0 0.42857143 0 0)">
	<g transform="matrix(0.13671875 0 0 0.13671875 0 0)">
	</g>
    <path transform="matrix(0.13671875 0 0 0.13671875 0 0)"  d="M67 148.7C 78 154.5 230.8 237.79999 236.5 240.79999C 242.2 243.79999 248 245.19998 257 245.19998C 266 245.19998 271.8 243.79999 277.5 240.79999C 283.2 237.79999 436 154.49998 447 148.69998C 451.1 146.59998 458 142.79999 459.5 138.49998C 462.1 130.89998 459.3 127.999985 448.2 127.999985L448.2 127.999985L257 127.999985L65.8 127.999985C 54.700005 127.999985 51.9 130.99998 54.500004 138.49998C 56 142.9 62.9 146.6 67 148.7z" stroke="none" fill="#000000" fill-rule="nonzero" />
	<g transform="matrix(0.13671875 0 0 0.13671875 0 0)">
	</g>
    <path transform="matrix(0.13671875 0 0 0.13671875 0 0)"  d="M455.7 153.2C 447.5 157.4 373.90002 209.79999 325.2 241.29999L325.2 241.29999L407.40002 333.8C 409.40002 335.8 410.30002 338.19998 409.2 339.4C 408 340.5 405.40002 339.9 403.30002 338L403.30002 338L304.7 254.8C 289.80002 264.4 279.30002 271 277.5 272C 269.8 275.9 264.4 276.4 257 276.4C 249.6 276.4 244.2 275.9 236.5 272C 234.6 271 224.2 264.4 209.3 254.8L209.3 254.8L110.700005 338C 108.700005 340 106.00001 340.6 104.8 339.4C 103.600006 338.3 104.5 335.8 106.5 333.8L106.5 333.8L188.6 241.29999C 139.90001 209.79999 65.50001 157.4 57.300003 153.19998C 48.500004 148.69998 48.000004 153.99998 48.000004 158.09998C 48.000004 162.19998 48.000004 363.09998 48.000004 363.09998C 48.000004 372.39996 61.700005 383.99997 71.5 383.99997L71.5 383.99997L257 383.99997L442.5 383.99997C 452.3 383.99997 464 372.29996 464 363.09998C 464 363.09998 464 162.09998 464 158.09998C 464 153.9 464.6 148.7 455.7 153.2z" stroke="none" fill="#000000" fill-rule="nonzero" />
</g>
</svg>