<?xml version="1.0" standalone="no"?>
<!DOCTYPE svg PUBLIC "-//W3C//DTD SVG 1.0//EN" "http://www.w3.org/TR/2001/REC-SVG-20010904/DTD/svg10.dtd">
<svg xmlns="http://www.w3.org/2000/svg" xmlns:xlink="http://www.w3.org/1999/xlink" id="body_1" width="25" height="25">

<g transform="matrix(0.8333334 0 0 0.8333334 0 0)">
	<g transform="matrix(0.05859375 0 0 0.05859375 0 0)">
	</g>
    <path transform="matrix(0.05859375 0 0 0.05859375 0 0)"  d="M376 16L136 16C 69.726 16 16 69.726 16 136L16 136L16 376C 16 442.274 69.726 496 136 496L136 496L376 496C 442.274 496 496 442.274 496 376L496 376L496 136C 496 69.726 442.274 16 376 16zM311.559 416.564C 303.04498 418.221 300.02698 412.979 300.02698 408.477C 300.02698 402.96198 300.235 384.813 300.235 362.301C 300.235 346.6 294.86798 336.336 288.848 331.134C 326.222 326.966 365.444 312.734 365.444 248.077C 365.444 229.693 358.962 214.668 348.204 202.887C 349.924 198.63599 355.67102 181.532 346.52502 158.351C 346.52502 158.351 332.45303 153.825 300.42203 175.601C 287.01804 171.847 272.653 170.006 258.41202 169.921C 244.12901 169.98401 229.78201 171.847 216.39801 175.578C 184.354 153.80501 170.25801 158.327 170.25801 158.327C 161.13402 181.48799 166.88 198.612 168.619 202.867C 157.884 214.647 151.337 229.67401 151.337 248.05501C 151.337 312.543 190.51901 326.98502 227.771 331.243C 222.96399 335.45602 218.624 342.87302 217.114 353.74902C 207.551 358.06503 183.239 365.48703 168.263 339.77103C 168.263 339.77103 159.413 323.61203 142.572 322.41803C 142.572 322.41803 126.19 322.20703 141.43701 332.64502C 141.43701 332.64502 152.45102 337.81903 160.06601 357.27103C 160.06601 357.27103 169.92201 390.00903 216.58801 379.84103C 216.67601 393.88702 216.82 404.47104 216.82 408.47604C 216.82 412.94205 213.757 418.13803 205.36801 416.58203C 138.67102 394.30502 90.59701 331.21902 90.59701 256.85703C 90.59701 163.88103 165.725 88.51402 258.368 88.51402C 351.05603 88.51402 426.18402 163.88101 426.18402 256.85703C 426.186 331.201 378.153 394.262 311.559 416.564z" stroke="none" fill="#000000" fill-rule="nonzero" />
</g>
</svg>