<?xml version="1.0" standalone="no"?>
<!DOCTYPE svg PUBLIC "-//W3C//DTD SVG 1.0//EN" "http://www.w3.org/TR/2001/REC-SVG-20010904/DTD/svg10.dtd">
<svg xmlns="http://www.w3.org/2000/svg" xmlns:xlink="http://www.w3.org/1999/xlink" id="body_1" width="30" height="30">

<g transform="matrix(1.2 0 0 1.2 0 0)">
	<g transform="matrix(1 0 0 1 0 0)">
	</g>
    <path transform="matrix(1 0 0 1 0 0)"  d="M15.7481 24.9471C 24.0901 24.7061 24.9111 22.9501 24.9111 12.9811C 24.9111 1.98108 23.9111 0.981079 12.9111 0.981079C 1.91113 0.981079 0.911133 1.98108 0.911133 12.9811C 0.911133 22.9761 1.73713 24.7151 10.1391 24.9491C 10.2121 24.8581 10.2391 24.7441 10.2391 24.6281C 10.2391 24.3781 10.2291 21.8121 10.2241 20.9291C 7.18713 21.5681 6.54613 19.5101 6.54613 19.5101C 6.04913 18.2881 5.33313 17.9621 5.33313 17.9621C 4.34213 17.3061 5.40813 17.3191 5.40813 17.3191C 6.50413 17.3941 7.08113 18.4101 7.08113 18.4101C 8.05513 20.0271 9.63713 19.5601 10.2591 19.2891C 10.3581 18.6061 10.6401 18.1391 10.9521 17.8751C 8.52713 17.6081 5.97813 16.7001 5.97813 12.6451C 5.97813 11.4901 6.40413 10.5461 7.10213 9.80608C 6.98913 9.53808 6.61513 8.46208 7.20913 7.00608C 7.20913 7.00608 8.12613 6.72108 10.2121 8.09008C 11.0831 7.85508 12.0171 7.73808 12.9461 7.73408C 13.8731 7.73808 14.8071 7.85508 15.6801 8.09008C 17.7651 6.72108 18.6801 7.00608 18.6801 7.00608C 19.2761 8.46208 18.9011 9.53808 18.7881 9.80608C 19.4881 10.5461 19.9111 11.4901 19.9111 12.6451C 19.9111 16.7101 17.3581 17.6051 14.9251 17.8661C 15.3171 18.1931 15.6661 18.8391 15.6661 19.8261C 15.6661 20.7721 15.6601 22.4451 15.6561 23.5541C 15.6541 24.1031 15.6531 24.5131 15.6531 24.6281C 15.6531 24.7371 15.6821 24.8521 15.7481 24.9471z" stroke="none" fill="#000000" fill-rule="nonzero" />
</g>
</svg>