<?xml version="1.0" standalone="no"?>
<!DOCTYPE svg PUBLIC "-//W3C//DTD SVG 1.0//EN" "http://www.w3.org/TR/2001/REC-SVG-20010904/DTD/svg10.dtd">
<svg xmlns="http://www.w3.org/2000/svg" xmlns:xlink="http://www.w3.org/1999/xlink" id="body_1" width="30" height="22">

<g transform="matrix(0.029296875 0 0 0.028645834 0 0)">
	<g transform="matrix(1.5 0 0 1.5 128.00003 -0)">
	</g>
    <path transform="matrix(1.5 0 0 1.5 128.00003 -0)"  d="M449.446 0C 483.971 0 512 28.03 512 62.554L512 62.554L512 449.44598C 512 483.96997 483.97 512 449.44598 512L449.44598 512L62.553986 512C 28.029987 512 -1.5258789E-05 483.97 -1.5258789E-05 449.44598L-1.5258789E-05 449.44598L-1.5258789E-05 62.553986C -1.5258789E-05 28.029987 28.028984 -1.5258789E-05 62.553986 -1.5258789E-05L62.553986 -1.5258789E-05L449.44598 -1.5258789E-05L449.446 0zM256 81C 208.47299 81 202.513 81.201 183.84799 82.053C 165.221 82.903 152.5 85.861 141.368 90.188C 129.86 94.66 120.101 100.644005 110.371994 110.372C 100.64299 120.101 94.659 129.86101 90.187 141.368C 85.86099 152.5 82.903 165.221 82.051994 183.84799C 81.201 202.513 80.99999 208.47299 80.99999 256C 80.99999 303.527 81.20099 309.487 82.051994 328.152C 82.90299 346.77902 85.86099 359.5 90.187 370.63202C 94.659 382.139 100.643 391.89902 110.371994 401.62802C 120.101 411.35703 129.86 417.34103 141.368 421.81302C 152.5 426.139 165.221 429.09702 183.84799 429.94702C 202.513 430.799 208.47299 431.00003 256 431.00003C 303.527 431.00003 309.487 430.79904 328.152 429.94702C 346.77902 429.09702 359.5 426.139 370.63202 421.81302C 382.139 417.341 391.89902 411.35703 401.62802 401.62802C 411.35703 391.89902 417.34103 382.139 421.81302 370.63202C 426.139 359.50003 429.09702 346.77902 429.94702 328.152C 430.799 309.487 431.00003 303.527 431.00003 256C 431.00003 208.47299 430.79904 202.513 429.94702 183.84799C 429.09702 165.221 426.139 152.5 421.81302 141.368C 417.341 129.861 411.35703 120.101 401.62802 110.371994C 391.89902 100.644 382.139 94.659996 370.63202 90.187996C 359.50003 85.86099 346.77902 82.903 328.152 82.05299C 309.487 81.201 303.527 80.99999 256 80.99999zM256 112.532C 302.727 112.532 308.262 112.71 326.715 113.551994C 343.777 114.33099 353.043 117.18199 359.21 119.576996C 367.379 122.752 373.20798 126.545 379.332 132.668C 385.456 138.79199 389.248 144.622 392.423 152.79C 394.819 158.957 397.67 168.22299 398.448 185.28499C 399.29 203.73799 399.469 209.273 399.469 255.99998C 399.469 302.727 399.29 308.262 398.448 326.71497C 397.66998 343.77698 394.819 353.04297 392.423 359.20996C 389.24802 367.37897 385.456 373.20795 379.332 379.33197C 373.208 385.45596 367.379 389.248 359.21 392.42297C 353.043 394.81897 343.77698 397.66998 326.715 398.44797C 308.26498 399.28998 302.72998 399.46896 256 399.46896C 209.27 399.46896 203.736 399.28998 185.285 398.44797C 168.223 397.66995 158.957 394.81897 152.79001 392.42297C 144.621 389.248 138.792 385.45596 132.66801 379.33197C 126.544014 373.20798 122.751015 367.37897 119.57701 359.20996C 117.181015 353.04297 114.33001 343.77695 113.55101 326.71497C 112.70901 308.26196 112.53101 302.72696 112.53101 255.99997C 112.53101 209.27296 112.709015 203.73798 113.55101 185.28497C 114.33001 168.22298 117.18101 158.95697 119.57701 152.78998C 122.751015 144.62198 126.544014 138.79198 132.66801 132.66798C 138.792 126.54498 144.62102 122.75198 152.79001 119.57698C 158.957 117.181984 168.223 114.33098 185.285 113.55198C 203.738 112.70998 209.27301 112.53198 256 112.53198zM256 166.135C 206.369 166.135 166.13501 206.36899 166.13501 256C 166.13501 305.631 206.36902 345.865 256 345.865C 305.631 345.865 345.865 305.63098 345.865 256C 345.865 206.369 305.63098 166.13501 256 166.13501zM256 314.333C 223.783 314.333 197.66699 288.217 197.66699 256C 197.66699 223.783 223.78299 197.66699 256 197.66699C 288.217 197.66699 314.333 223.78299 314.333 256C 314.333 288.217 288.217 314.333 256 314.333zM370.41602 162.585C 370.41602 174.18301 361.013 183.58401 349.415 183.58401C 337.818 183.58401 328.41602 174.18301 328.41602 162.58502C 328.41602 150.98703 337.81802 141.58502 349.415 141.58502C 361.013 141.58502 370.41602 150.98703 370.41602 162.58502z" stroke="none" fill="#000000" fill-rule="nonzero" />
</g>
</svg>