<?xml version="1.0" standalone="no"?>
<!DOCTYPE svg PUBLIC "-//W3C//DTD SVG 1.0//EN" "http://www.w3.org/TR/2001/REC-SVG-20010904/DTD/svg10.dtd">
<svg xmlns="http://www.w3.org/2000/svg" xmlns:xlink="http://www.w3.org/1999/xlink" id="body_1" width="25" height="25">

<g transform="matrix(0.8333334 0 0 0.8333334 0 0)">
	<g transform="matrix(0.5291658 0 0 0.5291658 0 0)">
	</g>
    <path transform="matrix(0.5291658 0 0 0.5291658 0 0)"  d="M30.071 27.101L30.071 27.024C 30.054998 27.05 30.037998 27.076 30.021 27.101L30.021 27.101L30.071 27.101z" stroke="none" fill="#000000" fill-rule="nonzero" />
	<g transform="matrix(0.5291658 0 0 0.5291658 0 0)">
	</g>
    <path transform="matrix(0.5291658 0 0 0.5291658 0 0)"  d="M49.265 4.667L7.145 4.667C 5.1289997 4.667 3.494 6.2629995 3.494 8.23L3.494 8.23L3.494 50.843C 3.494 52.809 5.1289997 54.405 7.145 54.405L7.145 54.405L49.265 54.405C 51.284 54.405 52.919 52.808 52.919 50.843L52.919 50.843L52.919 8.23C 52.919 6.262 51.283 4.667 49.265 4.667zM18.475 46.304L11.01 46.304L11.01 23.845L18.475 23.845L18.475 46.304zM14.743 20.777L14.693 20.777C 12.189 20.777 10.569 19.052 10.569 16.897C 10.569 14.693999 12.239 13.016999 14.792 13.016999C 17.346 13.016999 18.917 14.693999 18.967 16.897C 18.967 19.052 17.345 20.777 14.743 20.777zM45.394 46.304L37.929 46.304L37.929 34.286C 37.929 31.268 36.849 29.208 34.148003 29.208C 32.086002 29.208 30.858002 30.597 30.317003 31.939C 30.120003 32.418 30.072002 33.087997 30.072002 33.76L30.072002 33.76L30.072002 46.302998L22.607002 46.302998C 22.607002 46.302998 22.705002 25.948997 22.607002 23.843998L22.607002 23.843998L30.072002 23.843998L30.072002 27.022999C 31.064003 25.492998 32.838 23.314 36.801003 23.314C 41.712 23.314 45.395004 26.525 45.395004 33.424L45.395004 33.424L45.395004 46.304z" stroke="none" fill="#000000" fill-rule="nonzero" />
</g>
</svg>