<?xml version="1.0" standalone="no"?>
<!DOCTYPE svg PUBLIC "-//W3C//DTD SVG 1.0//EN" "http://www.w3.org/TR/2001/REC-SVG-20010904/DTD/svg10.dtd">
<svg xmlns="http://www.w3.org/2000/svg" xmlns:xlink="http://www.w3.org/1999/xlink" id="body_1" width="30" height="22">

<g transform="matrix(0.029296875 0 0 0.028645834 0 0)">
	<g transform="matrix(1.5 0 0 1.5 128.00003 -0)">
	</g>
    <path transform="matrix(1.5 0 0 1.5 128.00003 -0)"  d="M449.446 0C 483.971 0 512 28.03 512 62.554L512 62.554L512 449.44598C 512 483.96997 483.97 512 449.44598 512L449.44598 512L62.553986 512C 28.029987 512 -1.5258789E-05 483.97 -1.5258789E-05 449.44598L-1.5258789E-05 449.44598L-1.5258789E-05 62.553986C -1.5258789E-05 28.029987 28.028984 -1.5258789E-05 62.553986 -1.5258789E-05L62.553986 -1.5258789E-05L449.44598 -1.5258789E-05L449.446 0zM195.51901 424.544C 331.458 424.544 405.78702 311.901 405.78702 214.276C 405.78702 211.058 405.78702 207.839 405.634 204.774C 420.04 194.353 432.607 181.326 442.569 166.46C 429.389 172.28401 415.136 176.26901 400.117 178.108C 415.443 168.912 427.09 154.506 432.607 137.188C 418.35498 145.617 402.569 151.748 385.711 155.119C 372.224 140.713 353.067 131.824 331.765 131.824C 290.99802 131.824 257.89502 164.92801 257.89502 205.694C 257.89502 211.518 258.50803 217.188 259.88702 222.552C 198.43103 219.487 144.02502 190.062 107.55002 145.311C 101.26602 156.192 97.58802 168.912 97.58802 182.399C 97.58802 207.993 110.61502 230.675 130.53802 243.85501C 118.43102 243.548 107.09003 240.17702 97.12802 234.65901L97.12802 234.65901L97.12802 235.57901C 97.12802 271.441 122.56902 301.173 156.43903 308.069C 150.30902 309.755 143.71902 310.675 136.97502 310.675C 132.22401 310.675 127.62702 310.215 123.02902 309.29498C 132.37802 338.72098 159.65701 360.02298 191.99402 360.636C 166.70702 380.40698 134.83002 392.20697 100.194016 392.20697C 94.21702 392.20697 88.39301 391.90097 82.569016 391.13397C 114.90602 412.28397 153.83301 424.54398 195.51901 424.54398z" stroke="none" fill="#000000" fill-rule="nonzero" />
</g>
</svg>